<?xml version="1.0" encoding="UTF-8"?>
<svg version="1.1" xmlns="http://www.w3.org/2000/svg" width="350" height="97">
<path d="M0 0 C115.5 0 231 0 350 0 C350 32.01 350 64.02 350 97 C234.5 97 119 97 0 97 C0 64.99 0 32.98 0 0 Z " fill="#E5E5E5" transform="translate(0,0)"/>
<path d="M0 0 C54.12 0 108.24 0 164 0 C164 25.74 164 51.48 164 78 C109.88 78 55.76 78 0 78 C0 52.26 0 26.52 0 0 Z " fill="#537DF9" transform="translate(11,9)"/>
<path d="M0 0 C115.5 0 231 0 350 0 C350 32.01 350 64.02 350 97 C234.5 97 119 97 0 97 C0 64.99 0 32.98 0 0 Z M4 3 C4 32.7 4 62.4 4 93 C117.19 93 230.38 93 347 93 C347 63.3 347 33.6 347 3 C233.81 3 120.62 3 4 3 Z " fill="#5672C3" transform="translate(0,0)"/>
<path d="M0 0 C113.85 0 227.7 0 345 0 C345 0.66 345 1.32 345 2 C342.34962101 3.32518949 340.36675014 3.12413084 337.39714622 3.12304783 C336.19835945 3.12503888 334.99957267 3.12702993 333.76445901 3.12908131 C332.42226732 3.12622791 331.08007583 3.12328231 329.73788452 3.12025452 C328.32135169 3.12069023 326.90481894 3.12156513 325.48828661 3.12284368 C321.58205527 3.12508871 317.67585115 3.12106725 313.76962328 3.11606562 C309.56239349 3.11176142 305.35516533 3.11320752 301.14793396 3.1139679 C293.85406503 3.11449315 286.56020503 3.11134619 279.26633835 3.10573006 C268.72053201 3.09761526 258.17472999 3.09499986 247.62892087 3.09374207 C230.52051511 3.09155151 213.41211411 3.08489134 196.30371094 3.07543945 C179.68098983 3.06626542 163.05827001 3.05918454 146.43554688 3.05493164 C145.41153284 3.05466892 144.3875188 3.05440619 143.33247404 3.05413551 C138.19547887 3.0528305 133.0584837 3.05156679 127.92148852 3.05032361 C85.28098905 3.0399509 42.64049477 3.02233249 0 3 C0 2.01 0 1.02 0 0 Z " fill="#567DF2" transform="translate(3,0)"/>
<path d="M0 0 C4.19102445 2.35539522 6.99556638 5.36779537 9.5 9.4375 C10.55238138 14.83095457 10.79738143 18.43476979 8.3125 23.3125 C5.32038392 26.78982409 3.31738379 28.68558109 -1.33203125 29.31640625 C-7.05916509 29.58258488 -10.60407597 28.9772646 -15 25 C-19.07122479 19.60837799 -20.46692792 15.77045486 -20 9 C-16.05833926 0.07939937 -9.14008077 -1.77362499 0 0 Z " fill="#567BEE" transform="translate(278,34)"/>
<path d="M0 0 C2.536875 -0.061875 5.07375 -0.12375 7.6875 -0.1875 C8.47729248 -0.21481201 9.26708496 -0.24212402 10.08081055 -0.27026367 C14.61476924 -0.32357739 17.43712454 0.16424198 21 3 C23.45410358 6.68115537 23.23287843 8.65293598 23 13 C22.67 13.99 22.34 14.98 22 16 C22.66 16.66 23.32 17.32 24 18 C24.56321839 24.1954023 24.56321839 24.1954023 22.6875 26.875 C18.66438434 29.55707711 14.44009156 29.11504034 9.8125 29.0625 C9.06291016 29.05798828 8.31332031 29.05347656 7.54101562 29.04882812 C5.69397617 29.03706354 3.84697787 29.01912865 2 29 C2 28.01 2 27.02 2 26 C1.34 26 0.68 26 0 26 C0 17.42 0 8.84 0 0 Z " fill="#5C81F1" transform="translate(211,34)"/>
<path d="M0 0 C4.10094216 2.11752607 6.39145804 4.78291607 8.4375 8.875 C8.623125 9.57625 8.80875 10.2775 9 11 C1.25 11.125 1.25 11.125 -1 10 C-4 9.75 -4 9.75 -7 10 C-9.41121859 11.95633975 -9.41121859 11.95633975 -9.125 15.625 C-9.08375 16.73875 -9.0425 17.8525 -9 19 C-7.68 19 -6.36 19 -5 19 C-5 18.01 -5 17.02 -5 16 C-2.36 15.67 0.28 15.34 3 15 C3 14.01 3 13.02 3 12 C4.32 12 5.64 12 7 12 C7.33 12.66 7.66 13.32 8 14 C8.66 14 9.32 14 10 14 C9.6173991 19.64336328 9.22146091 22.89915226 5 27 C0.51132411 29.71808945 -3.89497455 29.63104911 -9 29 C-14.4617743 26.52674371 -17.67609125 22.43893537 -20 17 C-20.92846301 12.6887022 -20.32894352 9.62264308 -18.25 5.6875 C-12.96067964 -0.63029932 -8.04290842 -1.30368712 0 0 Z " fill="#587CEA" transform="translate(309,34)"/>
<path d="M0 0 C3.8053125 -0.12375 3.8053125 -0.12375 7.6875 -0.25 C8.87218872 -0.30462402 8.87218872 -0.30462402 10.08081055 -0.36035156 C13.79735508 -0.41862082 15.66903486 -0.19411958 18.95703125 1.734375 C21.74469811 4.82586023 21.89107083 6.87137602 22.16015625 10.89453125 C21.95039385 13.65213932 20.68544278 14.8748765 19 17 C19.67079974 20.09575344 19.67079974 20.09575344 21 23 C21.33 23.99 21.66 24.98 22 26 C19.36 26 16.72 26 14 26 C12.58398438 23.31445312 12.58398438 23.31445312 11.16796875 20.62890625 C10.00980201 18.67732013 10.00980201 18.67732013 7 18 C7 20.64 7 23.28 7 26 C4.69 26 2.38 26 0 26 C0 17.42 0 8.84 0 0 Z " fill="#F9FCFB" transform="translate(65,34)"/>
<path d="M0 0 C2.64 0 5.28 0 8 0 C11.68423013 8.55995596 14.94143568 17.2017469 18 26 C15.36 26 12.72 26 10 26 C9.67 24.68 9.34 23.36 9 22 C5.7 22 2.4 22 -1 22 C-1.33 23.32 -1.66 24.64 -2 26 C-4.64 26 -7.28 26 -10 26 C-3.84965831 8.14350797 -3.84965831 8.14350797 0 0 Z " fill="#F7F9FB" transform="translate(41,34)"/>
<path d="M0 0 C5.94 0 11.88 0 18 0 C18 1.98 18 3.96 18 6 C14.7 6 11.4 6 8 6 C8 7.32 8 8.64 8 10 C10.97 10 13.94 10 17 10 C17 11.65 17 13.3 17 15 C14.03 15 11.06 15 8 15 C8 16.65 8 18.3 8 20 C11.63 20 15.26 20 19 20 C19 21.98 19 23.96 19 26 C12.73 26 6.46 26 0 26 C0 17.42 0 8.84 0 0 Z " fill="#FBFDFD" transform="translate(110,34)"/>
<path d="M0 0 C2.64 0 5.28 0 8 0 C8 0.99 8 1.98 8 3 C8.66 3 9.32 3 10 3 C10 8.28 10 13.56 10 19 C12.64 19 15.28 19 18 19 C18 19.99 18 20.98 18 22 C18.66 22 19.32 22 20 22 C20 24.31 20 26.62 20 29 C14.06 29 8.12 29 2 29 C2 28.01 2 27.02 2 26 C1.34 26 0.68 26 0 26 C0 17.42 0 8.84 0 0 Z " fill="#5577DB" transform="translate(237,34)"/>
<path d="M0 0 C0.66 0 1.32 0 2 0 C2 31.68 2 63.36 2 96 C0.68 96 -0.64 96 -2 96 C-2 64.98 -2 33.96 -2 2 C-1.34 2 -0.68 2 0 2 C0 1.34 0 0.68 0 0 Z " fill="#648AFA" transform="translate(348,0)"/>
<path d="M0 0 C0.99 0 1.98 0 3 0 C3 0.66 3 1.32 3 2 C3.66 2 4.32 2 5 2 C5.78688445 4.77723925 6.11949924 7.22610077 6.09765625 10.109375 C6.09443359 10.86347656 6.09121094 11.61757813 6.08789062 12.39453125 C6.07951172 13.17183594 6.07113281 13.94914062 6.0625 14.75 C6.05798828 15.54277344 6.05347656 16.33554687 6.04882812 17.15234375 C6.03708565 19.10159508 6.01915146 21.05080738 6 23 C5.34 23.33 4.68 23.66 4 24 C4 22.68 4 21.36 4 20 C3.34 20 2.68 20 2 20 C2 21.98 2 23.96 2 26 C-4.27 26 -10.54 26 -17 26 C-17 25.01 -17 24.02 -17 23 C-11.39 23 -5.78 23 0 23 C0 21.02 0 19.04 0 17 C-3.63 17 -7.26 17 -11 17 C-11 15.35 -11 13.7 -11 12 C-8.03 12 -5.06 12 -2 12 C-2 10.35 -2 8.7 -2 7 C-4.97 7 -7.94 7 -11 7 C-11 5.68 -11 4.36 -11 3 C-7.37 3 -3.74 3 0 3 C0 2.01 0 1.02 0 0 Z " fill="#6788E7" transform="translate(129,37)"/>
<path d="M0 0 C2.64 0 5.28 0 8 0 C8 6.27 8 12.54 8 19 C11.63 19 15.26 19 19 19 C19 21.31 19 23.62 19 26 C12.73 26 6.46 26 0 26 C0 17.42 0 8.84 0 0 Z " fill="#F2F5F9" transform="translate(136,34)"/>
<path d="M0 0 C0.66 0.99 1.32 1.98 2 3 C0.865625 3.309375 -0.26875 3.61875 -1.4375 3.9375 C-4.78775099 4.62924531 -4.78775099 4.62924531 -6 6 C-6.23192865 7.51469448 -6.41215238 9.03754562 -6.5625 10.5625 C-6.64628906 11.38878906 -6.73007812 12.21507812 -6.81640625 13.06640625 C-6.87699219 13.70449219 -6.93757813 14.34257813 -7 15 C-4.69 15 -2.38 15 0 15 C0 15.99 0 16.98 0 18 C3.02752458 18.33639162 4.57878328 18.2647648 7.1875 16.625 C9.86891646 12.74156927 10.33119025 8.61126724 11 4 C13 6 13 6 13.375 9.75 C13.25541256 14.14284512 11.89315217 16.63768802 9 20 C5.16286804 23.38570467 1.36598538 23.51291172 -3.5625 23.3515625 C-7.20796018 22.82577497 -9.2910535 21.44465904 -12 19 C-13.875 16.25 -13.875 16.25 -15 14 C-14.01 14.33 -13.02 14.66 -12 15 C-12 15.66 -12 16.32 -12 17 C-11.34 17 -10.68 17 -10 17 C-10.309375 15.4840625 -10.309375 15.4840625 -10.625 13.9375 C-11.09295413 9.02398163 -10.45116968 5.249313 -7.75 1.0625 C-5.08043915 -0.5583048 -3.04419465 -0.38862059 0 0 Z " fill="#5477DD" transform="translate(275,40)"/>
<path d="M0 0 C2.63678406 1.40855932 3.9699926 2.74443622 6 5 C4 7 4 7 1.06640625 7.0546875 C-1.26720639 6.93501506 -3.60055248 6.810025 -5.93359375 6.6796875 C-9.04345013 6.69555475 -9.04345013 6.69555475 -10.8671875 8.72265625 C-12.06653441 11.13375711 -12.48386395 12.88807985 -12.6875 15.5625 C-12.75324219 16.32691406 -12.81898438 17.09132813 -12.88671875 17.87890625 C-12.97777869 19.5839252 -13 21.29255116 -13 23 C-15 23 -15 23 -17.0625 21.1875 C-19.60602399 18.31577936 -19.96778158 16.43494864 -20.25 12.625 C-19.9046905 7.6180123 -18.20750825 5.44121952 -15.0625 1.6875 C-10.21705283 -0.98244028 -5.39965159 -0.88172448 0 0 Z " fill="#567DF4" transform="translate(278,34)"/>
<path d="M0 0 C2.31 0 4.62 0 7 0 C7 8.58 7 17.16 7 26 C4.69 26 2.38 26 0 26 C0 17.42 0 8.84 0 0 Z " fill="#F9FDFD" transform="translate(95,34)"/>
<path d="M0 0 C0.33 0.66 0.66 1.32 1 2 C1.99 2 2.98 2 4 2 C4.33 3.65 4.66 5.3 5 7 C5.33 7 5.66 7 6 7 C6 11.29 6 15.58 6 20 C5.34 20 4.68 20 4 20 C3.67 20.99 3.34 21.98 3 23 C-0.63 23 -4.26 23 -8 23 C-8 21.68 -8 20.36 -8 19 C-4.535 18.505 -4.535 18.505 -1 18 C-1.53625 17.113125 -2.0725 16.22625 -2.625 15.3125 C-4 12 -4 12 -3.3125 9.5625 C-2.879375 8.716875 -2.44625 7.87125 -2 7 C-1.31320058 4.67251306 -0.64238957 2.34013344 0 0 Z " fill="#567AE7" transform="translate(87,41)"/>
<path d="M0 0 C0.99 0 1.98 0 3 0 C3 4.95 3 9.9 3 15 C4.423125 14.896875 5.84625 14.79375 7.3125 14.6875 C9.796875 14.6875 9.796875 14.6875 12 15 C14.46095022 17.61009872 14.92809761 19.20907374 15.25 22.75 C15 25 15 25 14 26 C12.5112814 26.08669432 11.018555 26.10703494 9.52734375 26.09765625 C8.62822266 26.09443359 7.72910156 26.09121094 6.80273438 26.08789062 C5.85720703 26.07951172 4.91167969 26.07113281 3.9375 26.0625 C2.98810547 26.05798828 2.03871094 26.05347656 1.06054688 26.04882812 C-1.29303065 26.0370011 -3.64648477 26.02052025 -6 26 C-6 25.01 -6 24.02 -6 23 C-0.39 23 5.22 23 11 23 C11 20.69 11 18.38 11 16 C7.37 16 3.74 16 0 16 C0 10.72 0 5.44 0 0 Z " fill="#374C91" transform="translate(144,37)"/>
<path d="M0 0 C2 2 2 2 2 5 C2.66 5 3.32 5 4 5 C6.42130331 7.42130331 6.52840504 8.80111377 7.125 12.125 C7.29257812 13.03507812 7.46015625 13.94515625 7.6328125 14.8828125 C7.81457031 15.93082031 7.81457031 15.93082031 8 17 C8.66 17 9.32 17 10 17 C10.33 16.01 10.66 15.02 11 14 C11 14.99 11 15.98 11 17 C13.64 17 16.28 17 19 17 C19 14.36 19 11.72 19 9 C20.32 9.33 21.64 9.66 23 10 C22.67 13.3 22.34 16.6 22 20 C15.1640625 20.9765625 15.1640625 20.9765625 13 21 C12.34 20.34 11.68 19.68 11 19 C10.67 19.33 10.34 19.66 10 20 C8.31391034 20.07205511 6.62499341 20.08386068 4.9375 20.0625 C4.01839844 20.05347656 3.09929688 20.04445313 2.15234375 20.03515625 C1.44207031 20.02355469 0.73179688 20.01195313 0 20 C-0.33 19.01 -0.66 18.02 -1 17 C0.98 16.67 2.96 16.34 5 16 C4.6390625 15.09636719 4.278125 14.19273438 3.90625 13.26171875 C3.4421875 12.08222656 2.978125 10.90273438 2.5 9.6875 C2.0359375 8.51574219 1.571875 7.34398437 1.09375 6.13671875 C0 3 0 3 0 0 Z " fill="#4F68BB" transform="translate(53,43)"/>
<path d="M0 0 C-0.33 1.65 -0.66 3.3 -1 5 C-1.33 3.68 -1.66 2.36 -2 1 C-2.99 1.66 -3.98 2.32 -5 3 C-5 3.66 -5 4.32 -5 5 C-7.97 5 -10.94 5 -14 5 C-14 5.99 -14 6.98 -14 8 C-13.34 8.33 -12.68 8.66 -12 9 C-13.99954746 9.04254356 -16.00041636 9.04080783 -18 9 C-19 8 -19 8 -19.25 4.625 C-19 1 -19 1 -17.875 -0.9375 C-12.63047324 -3.90939849 -5.54249263 -1.22679679 0 0 Z " fill="#5A7DED" transform="translate(318,45)"/>
<path d="M0 0 C4.2061412 1.50219329 5.77166546 4.25958131 8 8 C8 8.33 8 8.66 8 9 C0.25 9.125 0.25 9.125 -2 8 C-4.95788569 7.5832448 -4.95788569 7.5832448 -8 8 C-9.83333333 9.75 -9.83333333 9.75 -11 12 C-11.66 12.99 -12.32 13.98 -13 15 C-13.35820896 7.71641791 -13.35820896 7.71641791 -12 5 C-8.72032242 3.36016121 -5.62861311 3.82154362 -2 4 C-2 3.34 -2 2.68 -2 2 C-1.34 2 -0.68 2 0 2 C0 1.34 0 0.68 0 0 Z " fill="#3D57A8" transform="translate(310,36)"/>
<path d="M0 0 C0.66 0.66 1.32 1.32 2 2 C1.85532052 5.39996774 1.57183202 7.34345213 -0.6875 9.9375 C-3.78475925 11.36056506 -5.75466007 10.81133498 -9 10 C-9.36103152 3.6217765 -9.36103152 3.6217765 -7.875 1.0625 C-5.15050101 -0.48138276 -3.07108055 -0.3267107 0 0 Z " fill="#DCDEE3" transform="translate(277,43)"/>
<path d="M0 0 C1.05445313 0.00386719 2.10890625 0.00773437 3.1953125 0.01171875 C5.875 0.3125 5.875 0.3125 7.875 2.3125 C7.545 2.9725 7.215 3.6325 6.875 4.3125 C6.215 4.3125 5.555 4.3125 4.875 4.3125 C4.875 4.9725 4.875 5.6325 4.875 6.3125 C3.98296875 6.30089844 3.0909375 6.28929687 2.171875 6.27734375 C1.00140625 6.26832031 -0.1690625 6.25929688 -1.375 6.25 C-2.53515625 6.23839844 -3.6953125 6.22679687 -4.890625 6.21484375 C-7.53477128 6.29467908 -9.62326091 6.52606222 -12.125 7.3125 C-9.6561323 1.34606971 -6.30571182 -0.10070547 0 0 Z " fill="#587FF2" transform="translate(303.125,33.6875)"/>
<path d="M0 0 C2 2 2 2 2.375 5.75 C2.25541256 10.14284512 0.89315217 12.63768802 -2 16 C-5.87466808 19.41882478 -9.65546611 19.43798748 -14.6171875 19.3046875 C-17.63442177 18.91887722 -19.63475365 17.89219708 -22 16 C-19.2858544 14.6429272 -17.27092674 15.08467565 -14.25 15.25 C-8.9937295 15.31163781 -8.9937295 15.31163781 -4.375 13.125 C-1.21366573 8.96534965 -0.57613946 5.11572103 0 0 Z " fill="#050918" transform="translate(286,44)"/>
<path d="M0 0 C0.66 0 1.32 0 2 0 C1.6173991 5.64336328 1.22146091 8.89915226 -3 13 C-7.46067804 15.70113553 -11.92306568 15.6865037 -17 15 C-19.40823788 13.90965608 -20.95504966 12.72206345 -23 11 C-21.08536361 11 -19.16993625 11.04256737 -17.2578125 11.140625 C-10.8736531 11.43293874 -10.8736531 11.43293874 -4.9375 9.4375 C-2.52719083 6.40517556 -1.32823219 3.63516177 0 0 Z " fill="#020514" transform="translate(317,48)"/>
<path d="M0 0 C0.33 0 0.66 0 1 0 C1.36627907 5.49418605 1.36627907 5.49418605 -0.3125 7.8125 C-4.28244808 10.60616716 -8.55768762 10.11506556 -13.1875 10.0625 C-13.93708984 10.05798828 -14.68667969 10.05347656 -15.45898438 10.04882812 C-17.30602383 10.03706354 -19.15302213 10.01912865 -21 10 C-21 9.01 -21 8.02 -21 7 C-19.46279297 6.97873047 -19.46279297 6.97873047 -17.89453125 6.95703125 C-16.53381029 6.91010984 -15.17313459 6.86186256 -13.8125 6.8125 C-13.13896484 6.80669922 -12.46542969 6.80089844 -11.77148438 6.79492188 C-7.79993345 6.6205611 -6.13885418 6.11809094 -3.07421875 3.51171875 C-2.38972656 2.68285156 -1.70523438 1.85398438 -1 1 C-0.67 0.67 -0.34 0.34 0 0 Z " fill="#000114" transform="translate(234,53)"/>
<path d="M0 0 C2.97 0 5.94 0 9 0 C9 0.66 9 1.32 9 2 C6.69 2 4.38 2 2 2 C2.33 11.57 2.66 21.14 3 31 C2.01 30.34 1.02 29.68 0 29 C-0.34057617 26.11083984 -0.34057617 26.11083984 -0.29296875 22.4609375 C-0.28330078 21.15898438 -0.27363281 19.85703125 -0.26367188 18.515625 C-0.23860388 17.13541077 -0.21320902 15.75520244 -0.1875 14.375 C-0.17245517 12.98699337 -0.15876641 11.59897133 -0.14648438 10.2109375 C-0.1110257 6.80690491 -0.06160298 3.40364378 0 0 Z " fill="#6D8AE8" transform="translate(93,32)"/>
<path d="M0 0 C0.66 0 1.32 0 2 0 C2 8.58 2 17.16 2 26 C-0.64 26 -3.28 26 -6 26 C-6 25.01 -6 24.02 -6 23 C-4.02 23 -2.04 23 0 23 C0 15.41 0 7.82 0 0 Z " fill="#1D1F2E" transform="translate(102,37)"/>
<path d="M0 0 C0.66 0 1.32 0 2 0 C2 2.31 2 4.62 2 7 C-4.27 7 -10.54 7 -17 7 C-17 6.01 -17 5.02 -17 4 C-11.39 4 -5.78 4 0 4 C0 2.68 0 1.36 0 0 Z " fill="#04081D" transform="translate(155,56)"/>
<path d="M0 0 C0.33 0 0.66 0 1 0 C1 8.58 1 17.16 1 26 C1.66 26 2.32 26 3 26 C3 26.99 3 27.98 3 29 C8.94 29 14.88 29 21 29 C21 29.33 21 29.66 21 30 C17.89614789 30.11613204 14.79285338 30.18722029 11.6875 30.25 C10.80642578 30.28351563 9.92535156 30.31703125 9.01757812 30.3515625 C8.17001953 30.36445312 7.32246094 30.37734375 6.44921875 30.390625 C5.27879028 30.4220459 5.27879028 30.4220459 4.0847168 30.45410156 C2 30 2 30 0.2265625 28.35546875 C-1.35328277 25.32156206 -1.25786897 23.32775183 -1.07421875 19.921875 C-1.01943359 18.76171875 -0.96464844 17.6015625 -0.90820312 16.40625 C-0.83537109 15.1996875 -0.76253906 13.993125 -0.6875 12.75 C-0.62626953 11.52796875 -0.56503906 10.3059375 -0.50195312 9.046875 C-0.34876343 6.03021642 -0.18091879 3.01510186 0 0 Z M-4 23 C-3.34 23 -2.68 23 -2 23 C-1.67 24.65 -1.34 26.3 -1 28 C-1.99 28.33 -2.98 28.66 -4 29 C-4 27.02 -4 25.04 -4 23 Z " fill="#5C7DE1" transform="translate(135,34)"/>
<path d="M0 0 C0.66 0 1.32 0 2 0 C2 1.98 2 3.96 2 6 C-4.27 6 -10.54 6 -17 6 C-17 5.01 -17 4.02 -17 3 C-11.39 3 -5.78 3 0 3 C0 2.01 0 1.02 0 0 Z " fill="#020517" transform="translate(129,57)"/>
<path d="M0 0 C3.3 0 6.6 0 10 0 C10 0.99 10 1.98 10 3 C8.88625 3.103125 7.7725 3.20625 6.625 3.3125 C5.42875 3.539375 4.2325 3.76625 3 4 C2.01 5.485 2.01 5.485 1 7 C-0.9453125 7.29296875 -0.9453125 7.29296875 -3.125 7.1875 C-4.40375 7.125625 -5.6825 7.06375 -7 7 C-6.67 6.01 -6.34 5.02 -6 4 C-4.35 3.67 -2.7 3.34 -1 3 C-0.67 2.01 -0.34 1.02 0 0 Z " fill="#1D1F29" transform="translate(40,56)"/>
<path d="M0 0 C0.33 0 0.66 0 1 0 C1.07427838 3.34252724 1.06546953 5.8035914 0 9 C0.99 10.485 0.99 10.485 2 12 C-0.90673575 16.22797927 -0.90673575 16.22797927 -3 18 C-6.8125 18.375 -6.8125 18.375 -10 18 C-10 17.67 -10 17.34 -10 17 C-8.02 17 -6.04 17 -4 17 C-4 16.34 -4 15.68 -4 15 C-3.34 15 -2.68 15 -2 15 C-2.34227572 12.02934491 -2.34227572 12.02934491 -3 9 C-3.66 8.67 -4.32 8.34 -5 8 C-5 6.68 -5 5.36 -5 4 C-3.68 4 -2.36 4 -1 4 C-0.67 2.68 -0.34 1.36 0 0 Z " fill="#3F57A5" transform="translate(233,41)"/>
<path d="M0 0 C0.33 0 0.66 0 1 0 C1 2.31 1 4.62 1 7 C-4.61 7 -10.22 7 -16 7 C-16 6.01 -16 5.02 -16 4 C-10.72 4 -5.44 4 0 4 C0 2.68 0 1.36 0 0 Z " fill="#000011" transform="translate(256,56)"/>
<path d="M0 0 C5.94 0 11.88 0 18 0 C18 0.66 18 1.32 18 2 C16.92878906 1.98839844 15.85757813 1.97679687 14.75390625 1.96484375 C13.35677257 1.95546701 11.95963701 1.94636669 10.5625 1.9375 C9.85544922 1.92912109 9.14839844 1.92074219 8.41992188 1.91210938 C6.61306441 1.90346412 4.80612397 1.94779989 3 2 C1.31699331 3.68300669 1.77190923 5.82008727 1.68359375 8.12890625 C1.64169922 9.16337891 1.59980469 10.19785156 1.55664062 11.26367188 C1.51732422 12.35228516 1.47800781 13.44089844 1.4375 14.5625 C1.39431641 15.65498047 1.35113281 16.74746094 1.30664062 17.87304688 C1.20017932 20.58189564 1.09816484 23.29083992 1 26 C0.67 26 0.34 26 0 26 C0 17.42 0 8.84 0 0 Z " fill="#CDDEFA" transform="translate(110,34)"/>
<path d="M0 0 C1.32 0.33 2.64 0.66 4 1 C3.67 4.3 3.34 7.6 3 11 C0.36 11 -2.28 11 -5 11 C-5 10.01 -5 9.02 -5 8 C-3.35 8 -1.7 8 0 8 C0 5.36 0 2.72 0 0 Z " fill="#1F243A" transform="translate(72,52)"/>
<path d="M0 0 C1.32 0 2.64 0 4 0 C4.25 6.625 4.25 6.625 2 10 C0.68 10 -0.64 10 -2 10 C-2.33 8.02 -2.66 6.04 -3 4 C-2.01 3.34 -1.02 2.68 0 2 C0 1.34 0 0.68 0 0 Z " fill="#547AF1" transform="translate(312,46)"/>
<path d="M0 0 C0.33 0.66 0.66 1.32 1 2 C-1.31 2 -3.62 2 -6 2 C-6 3.65 -6 5.3 -6 7 C-5.34 7 -4.68 7 -4 7 C-4 7.99 -4 8.98 -4 10 C-3.34 10.33 -2.68 10.66 -2 11 C-3.99954746 11.04254356 -6.00041636 11.04080783 -8 11 C-9 10 -9 10 -9.25 6.625 C-9 3 -9 3 -7.875 1.0625 C-5.214973 -0.44484863 -2.99793795 -0.19986253 0 0 Z " fill="#DCE0E7" transform="translate(308,43)"/>
<path d="M0 0 C0.66 0 1.32 0 2 0 C2 1.98 2 3.96 2 6 C-4.435 6.495 -4.435 6.495 -11 7 C-11 5.68 -11 4.36 -11 3 C-7.37 3 -3.74 3 0 3 C0 2.01 0 1.02 0 0 Z " fill="#090F1F" transform="translate(129,37)"/>
<path d="M0 0 C0.66 0 1.32 0 2 0 C2 1.98 2 3.96 2 6 C-3.94 6.495 -3.94 6.495 -10 7 C-10 5.68 -10 4.36 -10 3 C-6.7 3 -3.4 3 0 3 C0 2.01 0 1.02 0 0 Z " fill="#0C1123" transform="translate(128,47)"/>
<path d="M0 0 C0.99 1.98 1.98 3.96 3 6 C0.36 6 -2.28 6 -5 6 C-5.66 4.35 -6.32 2.7 -7 1 C-4.53721199 -0.231394 -2.7204945 -0.07159196 0 0 Z " fill="#F7FBFD" transform="translate(84,54)"/>
<path d="M0 0 C0.66 0.99 1.32 1.98 2 3 C0.3603125 3.309375 0.3603125 3.309375 -1.3125 3.625 C-5.2285659 4.65663938 -5.2285659 4.65663938 -6.9375 8.125 C-7.288125 9.07375 -7.63875 10.0225 -8 11 C-8.33 11 -8.66 11 -9 11 C-9.36180905 3.64321608 -9.36180905 3.64321608 -7.875 1 C-5.11365285 -0.47271848 -3.06997072 -0.39191116 0 0 Z " fill="#080D25" transform="translate(306,40)"/>
<path d="M0 0 C0.66 0.99 1.32 1.98 2 3 C0.9275 3.226875 -0.145 3.45375 -1.25 3.6875 C-5.37218701 5.13026545 -6.64414523 6.41910075 -9 10 C-9.36103152 3.6217765 -9.36103152 3.6217765 -7.875 1.0625 C-5.12198451 -0.49754211 -3.0996593 -0.39570119 0 0 Z " fill="#0A0F29" transform="translate(275,40)"/>
<path d="M0 0 C2.64 0 5.28 0 8 0 C8.33 1.65 8.66 3.3 9 5 C6.69 4.67 4.38 4.34 2 4 C2 4.99 2 5.98 2 7 C1.34 7 0.68 7 0 7 C0 4.69 0 2.38 0 0 Z " fill="#2A3D7C" transform="translate(218,48)"/>
<path d="M0 0 C0.350625 0.639375 0.70125 1.27875 1.0625 1.9375 C3.77184206 4.82163832 6.15858911 4.7100822 10 5 C10 5.33 10 5.66 10 6 C2.48618785 6.25046041 2.48618785 6.25046041 -0.0625 4.9375 C-3.11633667 3.4598371 -5.76616013 4.37810772 -9 5 C-8.4375 3.0625 -8.4375 3.0625 -7 1 C-3.375 0.25 -3.375 0.25 0 0 Z " fill="#5373D2" transform="translate(50,58)"/>
<path d="M0 0 C0.66 0 1.32 0 2 0 C1.63076923 7.26153846 1.63076923 7.26153846 -1.5625 11 C-2.366875 11.66 -3.17125 12.32 -4 13 C-4.6875 11.25 -4.6875 11.25 -5 9 C-3.6875 7.0625 -3.6875 7.0625 -2 5 C-1.28837557 3.35202764 -0.60968047 1.68834592 0 0 Z " fill="#0E151E" transform="translate(317,48)"/>
<path d="M0 0 C1.65 0 3.3 0 5 0 C5.33 1.98 5.66 3.96 6 6 C6.99 6.33 7.98 6.66 9 7 C7.02 7.66 5.04 8.32 3 9 C2.87625 8.195625 2.7525 7.39125 2.625 6.5625 C2.315625 5.2940625 2.315625 5.2940625 2 4 C1.34 3.67 0.68 3.34 0 3 C0 2.01 0 1.02 0 0 Z " fill="#3954AC" transform="translate(304,50)"/>
<path d="M0 0 C0.33 0 0.66 0 1 0 C1.36305732 5.44585987 1.36305732 5.44585987 -0.1875 7.8125 C-2.42031739 9.27538036 -4.37344067 9.64505955 -7 10 C-6.52727227 5.74545047 -4.03562624 3.80795427 -1 1 C-0.67 0.67 -0.34 0.34 0 0 Z " fill="#0B0F1C" transform="translate(234,53)"/>
<path d="M0 0 C2 2 2 2 2.3125 4.8125 C1.96840628 8.32225593 1.01272399 10.14864101 -1 13 C-1.99 12.67 -2.98 12.34 -4 12 C-3.71125 11.319375 -3.4225 10.63875 -3.125 9.9375 C-1.87402645 6.67106907 -0.92552045 3.37153877 0 0 Z " fill="#0B0F25" transform="translate(87,41)"/>
<path d="M0 0 C0.33 0.99 0.66 1.98 1 3 C6.28 3.33 11.56 3.66 17 4 C17.33 3.01 17.66 2.02 18 1 C18 2.32 18 3.64 18 5 C12.72 5 7.44 5 2 5 C1.67 5.99 1.34 6.98 1 8 C0.67 5.36 0.34 2.72 0 0 Z " fill="#5975BF" transform="translate(238,55)"/>
<path d="M0 0 C0.66 0 1.32 0 2 0 C2.66 2.31 3.32 4.62 4 7 C2.02 7 0.04 7 -2 7 C-1.34 4.69 -0.68 2.38 0 0 Z " fill="#404555" transform="translate(44,44)"/>
<path d="M0 0 C0.66 1.32 1.32 2.64 2 4 C-0.64 4 -3.28 4 -6 4 C-6.33 3.01 -6.66 2.02 -7 1 C-3.535 0.505 -3.535 0.505 0 0 Z " fill="#040721" transform="translate(59,59)"/>
<path d="M0 0 C1.98 0 3.96 0 6 0 C6.33 0.99 6.66 1.98 7 3 C5.35 3 3.7 3 2 3 C2 3.99 2 4.98 2 6 C1.34 6 0.68 6 0 6 C0 4.02 0 2.04 0 0 Z " fill="#11121A" transform="translate(72,40)"/>
<path d="M0 0 C2.64 0 5.28 0 8 0 C8.33 0.99 8.66 1.98 9 3 C6.36 3 3.72 3 1 3 C0.67 2.01 0.34 1.02 0 0 Z " fill="#020317" transform="translate(80,60)"/>
<path d="M0 0 C0.33 0.66 0.66 1.32 1 2 C-0.98 2.33 -2.96 2.66 -5 3 C-3.68 3.33 -2.36 3.66 -1 4 C-1 4.66 -1 5.32 -1 6 C-2.98 6 -4.96 6 -7 6 C-7 4.35 -7 2.7 -7 1 C-3.535 0.505 -3.535 0.505 0 0 Z " fill="#5D7EDE" transform="translate(309,44)"/>
<path d="M0 0 C1.98 0 3.96 0 6 0 C6.33 0.99 6.66 1.98 7 3 C5.35 3 3.7 3 2 3 C2 3.66 2 4.32 2 5 C1.34 5 0.68 5 0 5 C0 3.35 0 1.7 0 0 Z " fill="#0E1A43" transform="translate(218,39)"/>
<path d="M0 0 C-0.33 1.32 -0.66 2.64 -1 4 C-1.33 3.67 -1.66 3.34 -2 3 C-3.34747084 2.76924918 -4.70377565 2.58846937 -6.0625 2.4375 C-7.361875 2.293125 -8.66125 2.14875 -10 2 C-7.20652751 -0.79347249 -3.65536205 -1.82768103 0 0 Z " fill="#6687E9" transform="translate(51,32)"/>
<path d="M0 0 C2.31 0 4.62 0 7 0 C7 0.99 7 1.98 7 3 C4.36 3 1.72 3 -1 3 C-0.67 2.01 -0.34 1.02 0 0 Z " fill="#020319" transform="translate(34,60)"/>
<path d="M0 0 C2 2 2 2 2.1953125 3.9453125 C2.13020833 5.96354167 2.06510417 7.98177083 2 10 C1.01 9.67 0.02 9.34 -1 9 C-0.67 6.03 -0.34 3.06 0 0 Z " fill="#0C112C" transform="translate(286,44)"/>
<path d="M0 0 C5.94 0.99 5.94 0.99 12 2 C10 3 8 4 6 5 C3.98079663 3.69593116 1.98075027 2.36176581 0 1 C0 0.67 0 0.34 0 0 Z " fill="#131F48" transform="translate(294,58)"/>
<path d="M0 0 C1.65 0 3.3 0 5 0 C5 0.99 5 1.98 5 3 C2.69 3.33 0.38 3.66 -2 4 C-1.34 3.67 -0.68 3.34 0 3 C0 2.01 0 1.02 0 0 Z " fill="#6B82C9" transform="translate(74,43)"/>
<path d="M0 0 C0.99 1.32 1.98 2.64 3 4 C2.01 4.66 1.02 5.32 0 6 C-0.72382467 8.05925139 -0.72382467 8.05925139 -1 10 C-1.66 10 -2.32 10 -3 10 C-2.01 6.7 -1.02 3.4 0 0 Z " fill="#E2F0FE" transform="translate(38,41)"/>
<path d="M0 0 C3.96 0.33 7.92 0.66 12 1 C12 1.33 12 1.66 12 2 C5.74185336 4.3314664 5.74185336 4.3314664 2.0625 2.6875 C1.381875 2.130625 0.70125 1.57375 0 1 C0 0.67 0 0.34 0 0 Z " fill="#0D1C41" transform="translate(264,59)"/>
<path d="M0 0 C0.99 1.32 1.98 2.64 3 4 C0.03 4 -2.94 4 -6 4 C-4.03617993 2.49440461 -2.21736634 1.10868317 0 0 Z " fill="#5379F7" transform="translate(223,44)"/>
<path d="M0 0 C0.33 0 0.66 0 1 0 C1.25 6.625 1.25 6.625 -1 10 C-1.66 10 -2.32 10 -3 10 C-3 8.68 -3 7.36 -3 6 C-2.01 6 -1.02 6 0 6 C0 4.02 0 2.04 0 0 Z " fill="#577ADD" transform="translate(131,37)"/>
</svg>
